<svg width="15" height="16" viewBox="0 0 15 16" fill="none" xmlns="http://www.w3.org/2000/svg">
<path d="M14.0436 0.803711H1.20643C0.954643 0.803711 0.75 1.08449 0.75 1.42966V2.6889C0.75 2.74692 0.795893 2.8135 0.833393 2.84043L7.58089 8.1239C7.59839 8.13785 7.61804 8.14422 7.63768 8.14422C7.65768 8.14422 7.67786 8.13712 7.69554 8.12268L14.2391 2.84557C14.2759 2.81742 14.3734 2.743 14.41 2.70873C14.4543 2.66736 14.5 2.6299 14.5 2.55573V1.42941C14.5 1.08449 14.2954 0.803711 14.0436 0.803711Z" fill="white"/>
<path d="M14.4432 4.58762C14.4075 4.55922 14.364 4.56045 14.3281 4.5886L10.625 7.57538C10.5954 7.59888 10.5748 7.64049 10.5698 7.68749C10.5654 7.73425 10.5761 7.78198 10.5991 7.8165L14.3027 13.2894C14.3247 13.322 14.3547 13.3394 14.3861 13.3394C14.4002 13.3394 14.4145 13.3357 14.4279 13.3289C14.4716 13.3051 14.5002 13.2476 14.5002 13.183V4.72348C14.5002 4.66718 14.4786 4.61553 14.4432 4.58762Z" fill="white"/>
<path d="M9.55787 8.57822C9.52144 8.52412 9.46287 8.51213 9.41662 8.54934L7.93233 9.74664C7.75805 9.88716 7.53483 9.88838 7.35947 9.75178L6.05322 8.72877C6.01001 8.69524 5.95554 8.70331 5.91912 8.74982L0.958759 15.0573C0.93233 15.0911 0.919116 15.1398 0.923045 15.189C0.926973 15.2382 0.947866 15.2823 0.979116 15.307C1.05626 15.3692 1.13072 15.3988 1.20644 15.3988H13.9123C13.9579 15.3988 13.9989 15.3618 14.0168 15.3045C14.035 15.2477 14.0268 15.1814 13.9957 15.1359L9.55787 8.57822Z" fill="white"/>
<path d="M4.8275 8.00371C4.85429 7.97018 4.86768 7.92073 4.86375 7.87152C4.85982 7.82207 4.83839 7.77825 4.80696 7.75328L0.920179 4.70996C0.885536 4.68254 0.841786 4.68303 0.806429 4.71094C0.771429 4.73884 0.75 4.7905 0.75 4.84607V12.8314C0.75 12.8933 0.776786 12.9496 0.818214 12.9743C0.832857 12.9834 0.848393 12.9878 0.864107 12.9878C0.892143 12.9878 0.920179 12.9734 0.941607 12.9459L4.8275 8.00371Z" fill="white"/>
</svg>
