<svg width="13" height="22" viewBox="0 0 13 22" fill="none" xmlns="http://www.w3.org/2000/svg">
<path d="M12.6432 17.0555C12.6145 16.7409 12.5034 16.472 12.3369 16.3123L9.87434 13.7378L9.85407 13.7176C9.75461 13.6271 9.63951 13.5805 9.52132 13.5805C9.31501 13.5805 9.11797 13.7192 8.98123 13.9624L8.2544 15.2527C8.22331 15.3052 8.12195 15.3811 8.0912 15.3838C8.08279 15.3826 7.2455 15.2756 5.70406 12.5401C4.16537 9.81041 4.10009 8.32013 4.09958 8.32013C4.10044 8.24392 4.1427 8.06468 4.17276 8.00921L4.79256 6.9097C5.0109 6.52136 5.07635 5.87757 4.94683 5.37888L3.57803 0.808648C3.47857 0.445298 3.28531 0.220947 3.07092 0.220947C2.91923 0.220947 2.77287 0.332513 2.65846 0.535221L0.968945 3.52646C0.80695 3.81239 0.66746 4.3123 0.637054 4.71467C0.62228 4.90701 0.322513 9.49827 3.8699 15.7938C6.88148 21.1371 9.2298 21.5522 9.87829 21.5522C10.0178 21.5522 10.099 21.5346 10.1147 21.5306C10.3407 21.4769 10.6221 21.23 10.7831 20.9438L12.4712 17.9486C12.609 17.7029 12.6719 17.3783 12.6432 17.0555Z" fill="white"/>
</svg>
